<svg width="24" height="24" viewBox="0 0 24 24" fill="none" xmlns="http://www.w3.org/2000/svg">
<path d="M3.97701 9.84C4.01724 9.3388 4.24477 8.87115 4.61429 8.53017C4.98381 8.18918 5.46821 7.9999 5.97101 8L18.029 8C18.5318 7.9999 19.0162 8.18918 19.3857 8.53017C19.7553 8.87115 19.9828 9.3388 20.023 9.84L20.826 19.84C20.8481 20.1152 20.813 20.392 20.7228 20.6529C20.6327 20.9139 20.4895 21.1533 20.3023 21.3562C20.1151 21.5591 19.8879 21.7211 19.635 21.8319C19.3822 21.9427 19.1091 21.9999 18.833 22H5.16701C4.89094 21.9999 4.61786 21.9427 4.36499 21.8319C4.11212 21.7211 3.88492 21.5591 3.69771 21.3562C3.51049 21.1533 3.36731 20.9139 3.27718 20.6529C3.18705 20.392 3.15193 20.1152 3.17401 19.84L3.97701 9.84V9.84Z" stroke="white" stroke-width="2.17" stroke-linecap="round" stroke-linejoin="round"/>
<path d="M16 11V6C16 4.93913 15.5786 3.92172 14.8284 3.17157C14.0783 2.42143 13.0609 2 12 2C10.9391 2 9.92172 2.42143 9.17157 3.17157C8.42143 3.92172 8 4.93913 8 6L8 11" stroke="white" stroke-width="2.17" stroke-linecap="round" stroke-linejoin="round"/>
</svg>
