<svg width="38" height="38" viewBox="0 0 38 38" fill="none" xmlns="http://www.w3.org/2000/svg">
<path d="M19 17.4167H14.25M19 12.6667V17.4167V12.6667ZM19 17.4167V22.1667V17.4167ZM19 17.4167H23.75H19Z" stroke="white" stroke-width="3.16667" stroke-linecap="round"/>
<path d="M22.1666 30.0833C28.1374 30.0833 31.1235 30.0833 32.9776 28.2277C34.8333 26.3736 34.8333 23.3874 34.8333 17.4167C34.8333 11.4459 34.8333 8.45975 32.9776 6.60567C31.1235 4.75 28.1374 4.75 22.1666 4.75H15.8333C9.86254 4.75 6.87638 4.75 5.02229 6.60567C3.16663 8.45975 3.16663 11.4459 3.16663 17.4167C3.16663 23.3874 3.16663 26.3736 5.02229 28.2277C6.05621 29.2632 7.44163 29.7208 9.49996 29.9218" stroke="white" stroke-width="3.16667" stroke-linecap="round" stroke-linejoin="round"/>
<path d="M22.1667 30.0833C20.2097 30.0833 18.0532 30.8749 16.0851 31.8962C12.9216 33.5381 11.3398 34.3598 10.5608 33.8358C9.78185 33.3133 9.9291 31.6903 10.2252 28.4461L10.2917 27.7083" stroke="white" stroke-width="3.16667" stroke-linecap="round"/>
</svg>
