<svg width="24" height="24" viewBox="0 0 24 24" fill="none" xmlns="http://www.w3.org/2000/svg">
<path d="M2 9.75C2 11.1822 2.64273 12.4698 3.64931 13.3417C1.7758 14.4194 0.5 16.4359 0.5 18.75V19H0.75H2.25H2.5V18.75C2.5 16.3951 4.39507 14.5 6.75 14.5C9.10493 14.5 11 16.3951 11 18.75V19H11.25H12.75H13V18.75C13 16.3951 14.8951 14.5 17.25 14.5C19.6049 14.5 21.5 16.3951 21.5 18.75V19H21.75H23.25H23.5V18.75C23.5 16.4355 22.2246 14.4199 20.3516 13.3421C20.817 12.9405 21.2012 12.4515 21.4815 11.9016C21.8211 11.2353 21.9987 10.4983 22 9.75042V9.75C22 7.13693 19.8631 5 17.25 5C14.6369 5 12.5 7.13693 12.5 9.75C12.5 11.1817 13.1423 12.4689 14.1482 13.3407C13.2821 13.8351 12.5458 14.5282 12 15.3625C11.4544 14.5285 10.7184 13.8356 9.85262 13.3412C10.3176 12.9398 10.7014 12.4511 10.9815 11.9016C11.3211 11.2353 11.4987 10.4983 11.5 9.75042V9.75C11.5 7.13693 9.36307 5 6.75 5C4.13693 5 2 7.13693 2 9.75ZM6.75 7C8.27918 7 9.5 8.22082 9.5 9.75C9.5 11.2792 8.27918 12.5 6.75 12.5C5.22082 12.5 4 11.2792 4 9.75C4 8.22082 5.22082 7 6.75 7ZM17.25 7C18.7792 7 20 8.22082 20 9.75C20 11.2792 18.7792 12.5 17.25 12.5C15.7208 12.5 14.5 11.2792 14.5 9.75C14.5 8.22082 15.7208 7 17.25 7Z" fill="white" stroke="white" stroke-width="0.5"/>
</svg>
